<mxfile host="app.diagrams.net" modified="2020-12-31T09:25:14.687Z" agent="5.0 (Windows NT 10.0; Win64; x64) AppleWebKit/537.36 (KHTML, like Gecko) Chrome/87.0.4280.88 Safari/537.36" etag="fCLztWy6gb_Hv6TIB4gS" version="14.1.3" type="github" pages="2">
  <diagram id="kgpKYQtTHZ0yAKxKKP6v" name="Page-1">
    <mxGraphModel dx="1038" dy="580" grid="1" gridSize="10" guides="1" tooltips="1" connect="1" arrows="1" fold="1" page="1" pageScale="1" pageWidth="850" pageHeight="1100" math="0" shadow="0">
      <root>
        <mxCell id="0" />
        <mxCell id="1" parent="0" />
        <mxCell id="xWZqswrdJ6NtYb8d9YJD-1" value="" style="shape=umlLifeline;participant=umlActor;perimeter=lifelinePerimeter;whiteSpace=wrap;html=1;container=1;collapsible=0;recursiveResize=0;verticalAlign=top;spacingTop=36;outlineConnect=0;" vertex="1" parent="1">
          <mxGeometry x="180" y="40" width="20" height="480" as="geometry" />
        </mxCell>
        <mxCell id="xWZqswrdJ6NtYb8d9YJD-5" value="" style="html=1;points=[];perimeter=orthogonalPerimeter;" vertex="1" parent="xWZqswrdJ6NtYb8d9YJD-1">
          <mxGeometry x="5" y="80" width="10" height="250" as="geometry" />
        </mxCell>
        <mxCell id="xWZqswrdJ6NtYb8d9YJD-2" value=":Giao diện" style="shape=umlLifeline;perimeter=lifelinePerimeter;whiteSpace=wrap;html=1;container=1;collapsible=0;recursiveResize=0;outlineConnect=0;" vertex="1" parent="1">
          <mxGeometry x="380" y="40" width="100" height="480" as="geometry" />
        </mxCell>
        <mxCell id="xWZqswrdJ6NtYb8d9YJD-6" value="" style="html=1;points=[];perimeter=orthogonalPerimeter;" vertex="1" parent="xWZqswrdJ6NtYb8d9YJD-2">
          <mxGeometry x="45" y="90" width="10" height="240" as="geometry" />
        </mxCell>
        <mxCell id="xWZqswrdJ6NtYb8d9YJD-11" value="Gửi yêu cầu đăng xuất" style="html=1;verticalAlign=bottom;endArrow=block;" edge="1" parent="xWZqswrdJ6NtYb8d9YJD-2" target="xWZqswrdJ6NtYb8d9YJD-3">
          <mxGeometry width="80" relative="1" as="geometry">
            <mxPoint x="60" y="200" as="sourcePoint" />
            <mxPoint x="140" y="200" as="targetPoint" />
          </mxGeometry>
        </mxCell>
        <mxCell id="xWZqswrdJ6NtYb8d9YJD-14" value="Gửi về thông báo đăng xuất thành công" style="html=1;verticalAlign=bottom;endArrow=open;dashed=1;endSize=8;" edge="1" parent="xWZqswrdJ6NtYb8d9YJD-2" source="xWZqswrdJ6NtYb8d9YJD-3">
          <mxGeometry relative="1" as="geometry">
            <mxPoint x="150" y="280" as="sourcePoint" />
            <mxPoint x="60" y="280" as="targetPoint" />
          </mxGeometry>
        </mxCell>
        <mxCell id="xWZqswrdJ6NtYb8d9YJD-3" value=":Server" style="shape=umlLifeline;perimeter=lifelinePerimeter;whiteSpace=wrap;html=1;container=1;collapsible=0;recursiveResize=0;outlineConnect=0;" vertex="1" parent="1">
          <mxGeometry x="640" y="40" width="100" height="480" as="geometry" />
        </mxCell>
        <mxCell id="xWZqswrdJ6NtYb8d9YJD-10" value="" style="html=1;points=[];perimeter=orthogonalPerimeter;" vertex="1" parent="xWZqswrdJ6NtYb8d9YJD-3">
          <mxGeometry x="45" y="165" width="10" height="165" as="geometry" />
        </mxCell>
        <mxCell id="xWZqswrdJ6NtYb8d9YJD-13" value="Xóa token của&lt;br&gt;người dùng" style="edgeStyle=orthogonalEdgeStyle;html=1;align=left;spacingLeft=2;endArrow=block;rounded=0;entryX=1;entryY=0;" edge="1" parent="xWZqswrdJ6NtYb8d9YJD-3">
          <mxGeometry relative="1" as="geometry">
            <mxPoint x="55" y="210" as="sourcePoint" />
            <Array as="points">
              <mxPoint x="80" y="210" />
            </Array>
            <mxPoint x="60" y="230" as="targetPoint" />
          </mxGeometry>
        </mxCell>
        <mxCell id="xWZqswrdJ6NtYb8d9YJD-4" value="Người dùng" style="text;align=center;fontStyle=1;verticalAlign=middle;spacingLeft=3;spacingRight=3;strokeColor=none;rotatable=0;points=[[0,0.5],[1,0.5]];portConstraint=eastwest;" vertex="1" parent="1">
          <mxGeometry x="150" y="80" width="80" height="26" as="geometry" />
        </mxCell>
        <mxCell id="xWZqswrdJ6NtYb8d9YJD-7" value="Mở giao diện đăng xuất" style="html=1;verticalAlign=bottom;endArrow=block;" edge="1" parent="1" target="xWZqswrdJ6NtYb8d9YJD-2">
          <mxGeometry width="80" relative="1" as="geometry">
            <mxPoint x="200" y="140" as="sourcePoint" />
            <mxPoint x="280" y="140" as="targetPoint" />
          </mxGeometry>
        </mxCell>
        <mxCell id="xWZqswrdJ6NtYb8d9YJD-8" value="Hiển thị giao diện đăng xuất" style="html=1;verticalAlign=bottom;endArrow=block;" edge="1" parent="1" source="xWZqswrdJ6NtYb8d9YJD-2" target="xWZqswrdJ6NtYb8d9YJD-1">
          <mxGeometry width="80" relative="1" as="geometry">
            <mxPoint x="370" y="170" as="sourcePoint" />
            <mxPoint x="380" y="170" as="targetPoint" />
            <Array as="points">
              <mxPoint x="330" y="170" />
            </Array>
          </mxGeometry>
        </mxCell>
        <mxCell id="xWZqswrdJ6NtYb8d9YJD-9" value="Xác nhận đăng xuất" style="html=1;verticalAlign=bottom;endArrow=block;" edge="1" parent="1" target="xWZqswrdJ6NtYb8d9YJD-2">
          <mxGeometry width="80" relative="1" as="geometry">
            <mxPoint x="200" y="210" as="sourcePoint" />
            <mxPoint x="290" y="210" as="targetPoint" />
          </mxGeometry>
        </mxCell>
        <mxCell id="xWZqswrdJ6NtYb8d9YJD-15" value="Trở về màn hình đăng nhập" style="html=1;verticalAlign=bottom;endArrow=block;" edge="1" parent="1" source="xWZqswrdJ6NtYb8d9YJD-2" target="xWZqswrdJ6NtYb8d9YJD-1">
          <mxGeometry width="80" relative="1" as="geometry">
            <mxPoint x="280" y="320" as="sourcePoint" />
            <mxPoint x="200" y="320" as="targetPoint" />
            <Array as="points">
              <mxPoint x="270" y="340" />
            </Array>
          </mxGeometry>
        </mxCell>
      </root>
    </mxGraphModel>
  </diagram>
  <diagram id="Izso1TV57h47C0jc9rCf" name="Page-2">
    <mxGraphModel dx="1038" dy="580" grid="1" gridSize="10" guides="1" tooltips="1" connect="1" arrows="1" fold="1" page="1" pageScale="1" pageWidth="827" pageHeight="1169" math="0" shadow="0">
      <root>
        <mxCell id="qDb05FbhdvzX3XchvyB8-0" />
        <mxCell id="qDb05FbhdvzX3XchvyB8-1" parent="qDb05FbhdvzX3XchvyB8-0" />
      </root>
    </mxGraphModel>
  </diagram>
</mxfile>
